<svg width="16" height="16" viewBox="0 0 16 16" fill="none" xmlns="http://www.w3.org/2000/svg">
<path d="M6.47664 7.99992C7.24398 7.99992 7.80998 7.43392 7.80998 6.66659C7.80998 5.89925 7.24398 5.33325 6.47664 5.33325C5.70931 5.33325 5.14331 5.89925 5.14331 6.66659C5.14331 7.43392 5.70864 7.99992 6.47664 7.99992Z" fill="black"/>
<path d="M13.3334 2.66675H2.66671C1.93137 2.66675 1.33337 3.22741 1.33337 3.91675V12.0834C1.33337 12.7727 1.93137 13.3334 2.66671 13.3334H13.3334C14.0687 13.3334 14.6667 12.7727 14.6667 12.0834V3.91675C14.6667 3.22741 14.0687 2.66675 13.3334 2.66675ZM13.3334 12.0001L2.66671 11.9927V4.00008L13.3334 4.00741V12.0001Z" fill="black"/>
<path d="M9.33333 6H12V7.33333H9.33333V6ZM10 8.66667H12V10H10V8.66667ZM8.95333 10.3573C8.95333 9.44133 7.836 8.5 6.47667 8.5C5.11733 8.5 4 9.44133 4 10.3573V10.6667H8.95333V10.3573Z" fill="black"/>
</svg>
