<svg width="57" height="34" viewBox="0 0 57 34" fill="none" xmlns="http://www.w3.org/2000/svg">
<path d="M48.45 0H8.55C3.8361 0 0 3.81367 0 8.5V22.6667C0 28.917 5.1129 34 11.4 34H16.0654C19.3885 34 22.5634 32.4218 24.5613 29.7755C26.4423 27.285 30.5577 27.2822 32.4387 29.7783C34.4365 32.4247 37.6115 34 40.9346 34H45.6C51.8871 34 57 28.917 57 22.6667V8.5C57 3.81367 53.1639 0 48.45 0ZM15.675 19.8333C11.7391 19.8333 8.55 17.9293 8.55 15.5833C8.55 13.2373 11.7391 11.3333 15.675 11.3333C19.6108 11.3333 22.8 13.2373 22.8 15.5833C22.8 17.9293 19.6108 19.8333 15.675 19.8333ZM41.325 19.8333C37.3891 19.8333 34.2 17.9293 34.2 15.5833C34.2 13.2373 37.3891 11.3333 41.325 11.3333C45.2608 11.3333 48.45 13.2373 48.45 15.5833C48.45 17.9293 45.2608 19.8333 41.325 19.8333Z" fill="white"/>
</svg>
