<svg width="19" height="19" viewBox="0 0 19 19" fill="none" xmlns="http://www.w3.org/2000/svg">
<g clip-path="url(#clip0)">
<path d="M16.3475 8.32163C16.2475 7.83579 16.1 7.36246 15.91 6.91496C15.7225 6.47163 15.49 6.04329 15.2183 5.63913C14.9483 5.23996 14.6408 4.86746 14.3033 4.53163C13.9667 4.19329 13.5925 3.88496 13.1933 3.61413C12.7908 3.34246 12.3617 3.11079 11.92 2.92329C11.4717 2.73246 10.9983 2.58579 10.5108 2.48496C10.0108 2.38246 9.495 2.33329 8.97917 2.33496V0.666626L5.66667 3.16663L8.97917 5.66663V4.00163C9.3825 3.99996 9.78583 4.03829 10.175 4.11829C10.5533 4.19663 10.9217 4.31079 11.27 4.45913C11.6142 4.60413 11.9475 4.78579 12.26 4.99579C12.5708 5.20579 12.8617 5.44579 13.125 5.70996C13.3875 5.97163 13.6283 6.26246 13.8367 6.57246C14.0483 6.88579 14.2292 7.21913 14.375 7.56496C14.5233 7.91246 14.6367 8.28079 14.715 8.65746C14.7933 9.03996 14.8333 9.43579 14.8333 9.83329C14.8333 10.2308 14.7933 10.6266 14.715 11.0083C14.6367 11.3866 14.5233 11.755 14.375 12.1041C14.2292 12.4483 14.0483 12.7816 13.8383 13.0941C13.6275 13.405 13.3867 13.6958 13.1233 13.96C12.8608 14.2233 12.5708 14.4625 12.26 14.6716C11.95 14.8808 11.6175 15.0616 11.2692 15.2091C10.9217 15.3566 10.5542 15.4708 10.1767 15.5491C9.41 15.7058 8.58833 15.7058 7.825 15.5491C7.44667 15.4708 7.07833 15.3566 6.73 15.2083C6.38333 15.0616 6.05083 14.8808 5.73917 14.6708C5.43 14.4625 5.14 14.2225 4.87667 13.9591C4.61417 13.6958 4.37333 13.405 4.16417 13.0958C3.9525 12.7825 3.77167 12.4491 3.62583 12.1041C3.4775 11.7558 3.36417 11.3875 3.28583 11.0108C3.20667 10.6266 3.16667 10.2308 3.16667 9.83329H1.5C1.5 10.3425 1.55167 10.8508 1.6525 11.345C1.7525 11.83 1.9 12.3033 2.09 12.7525C2.2775 13.1958 2.51 13.6241 2.7825 14.0283C3.05167 14.4258 3.35917 14.7983 3.69667 15.1358C4.035 15.475 4.40833 15.7833 4.80583 16.0516C5.205 16.3225 5.63417 16.555 6.08 16.7433C6.52833 16.9341 7.00167 17.0808 7.48917 17.1816C7.9825 17.2816 8.49083 17.3333 9 17.3333C9.50917 17.3333 10.0175 17.2816 10.5117 17.1808C10.9975 17.08 11.4708 16.9333 11.9183 16.7433C12.3658 16.5541 12.795 16.3216 13.1933 16.0516C13.5917 15.7833 13.965 15.475 14.3025 15.1358C14.64 14.7983 14.9475 14.425 15.2192 14.0258C15.49 13.6233 15.7225 13.1941 15.91 12.7525C16.1008 12.3025 16.2475 11.8291 16.3475 11.3425C16.4483 10.8508 16.5 10.3425 16.5 9.83329C16.5 9.32413 16.4483 8.81579 16.3475 8.32163Z" fill="black"/>
</g>
<defs>
<clipPath id="clip0">
<rect width="19" height="19" fill="white"/>
</clipPath>
</defs>
</svg>
