<svg width="16" height="17" viewBox="0 0 16 17" fill="none" xmlns="http://www.w3.org/2000/svg">
<path fill-rule="evenodd" clip-rule="evenodd" d="M12.6 7.0998C12.6 3.62041 9.77939 0.799805 6.3 0.799805C2.82061 0.799805 0 3.62041 0 7.0998C0 10.5792 2.82061 13.3998 6.3 13.3998C7.66364 13.3998 8.92609 12.9666 9.95721 12.2302L13.9648 16.2374L14.057 16.318C14.4098 16.5865 14.9154 16.5596 15.2376 16.2374C15.5891 15.8859 15.5891 15.3161 15.2376 14.9646L11.2589 10.9861C12.099 9.91555 12.6 8.56618 12.6 7.0998ZM1.2 7.0998C1.2 4.28315 3.48335 1.9998 6.3 1.9998C9.11665 1.9998 11.4 4.28315 11.4 7.0998C11.4 9.91646 9.11665 12.1998 6.3 12.1998C3.48335 12.1998 1.2 9.91646 1.2 7.0998Z" fill="#8E8E93"/>
</svg>
