<svg width="20" height="20" viewBox="0 0 20 20" fill="none" xmlns="http://www.w3.org/2000/svg">
<path d="M5.39474 12.1C6.01737 12.1 6.58047 11.8494 7.00742 11.449L11.2906 13.9529C11.2434 14.1454 11.2105 14.3428 11.2105 14.55C11.2105 15.901 12.2847 17 13.6053 17C14.9258 17 16 15.901 16 14.55C16 13.199 14.9258 12.1 13.6053 12.1C12.9826 12.1 12.4195 12.3506 11.9926 12.751L7.70942 10.2471C7.75253 10.0742 7.77989 9.8957 7.78332 9.7095L11.9919 7.249C12.4195 7.6494 12.9826 7.9 13.6053 7.9C14.9258 7.9 16 6.801 16 5.45C16 4.099 14.9258 3 13.6053 3C12.2847 3 11.2105 4.099 11.2105 5.45C11.2105 5.6572 11.2434 5.8546 11.2906 6.0471L7.40153 8.3214C6.97389 7.648 6.23563 7.2 5.39474 7.2C4.07421 7.2 3 8.299 3 9.65C3 11.001 4.07421 12.1 5.39474 12.1ZM13.6053 13.5C14.1711 13.5 14.6316 13.9711 14.6316 14.55C14.6316 15.1289 14.1711 15.6 13.6053 15.6C13.0394 15.6 12.5789 15.1289 12.5789 14.55C12.5789 13.9711 13.0394 13.5 13.6053 13.5ZM13.6053 4.4C14.1711 4.4 14.6316 4.8711 14.6316 5.45C14.6316 6.0289 14.1711 6.5 13.6053 6.5C13.0394 6.5 12.5789 6.0289 12.5789 5.45C12.5789 4.8711 13.0394 4.4 13.6053 4.4ZM5.39474 8.6C5.96058 8.6 6.42105 9.0711 6.42105 9.65C6.42105 10.2289 5.96058 10.7 5.39474 10.7C4.82889 10.7 4.36842 10.2289 4.36842 9.65C4.36842 9.0711 4.82889 8.6 5.39474 8.6Z" fill="black"/>
</svg>
